<?xml version="1.0" encoding="UTF-8"?>
<svg id="Capa_2" xmlns="http://www.w3.org/2000/svg" viewBox="0 0 600 89.71">
  <defs>
    <style>
      .cls-1 {
        fill: #001689;
      }

      .cls-2 {
        fill: #fff;
      }

      .cls-3 {
        fill: #ff4438;
      }
    </style>
  </defs>
  <g id="Layer_1">
    <g>
      <path class="cls-2" d="M75.29,58.82h24.2v-11.12c-7.64-1.17-12.24-3.47-15.2-6.07-4.12-3.74-5.66-7.91-5.66-14.73,0-12.08,7.91-21.18,20.62-24.97h-36.71l-12.62,50.2L37.71,1.93H0v85.86h24.71l-.39-59.34,15.58,59.34h19.69l15.57-59.6-.39,59.6h24.03c-14.73-4.03-23.33-14.25-23.52-28.96"/>
      <path class="cls-2" d="M141.58,41.06c-4.25-2.97-9.4-5.02-19.31-7.73q-18.28-4.89-18.28-8.37c0-3.34,3.22-5.28,8.63-5.28,6.69,0,10.81,3.09,10.81,8.23h24.72c-.13-17.63-12.87-27.92-34.75-27.92-5.17,0-9.91.68-14.13,1.93h.23v45.77c3.34.51,7.26.81,11.89.81,19.16.04,21.13,7.2,19.68,14.61-.96,4.88-9.17,6.9-16,6.9-8.75,0-12.87-3.35-13.39-11.2h-2.18v28.96h-.68c4.59,1.26,9.76,1.93,15.48,1.93,22.91,0,37.45-11.32,37.45-29.22,0-8.23-3.47-14.8-10.17-19.43"/>
      <path class="cls-1" d="M99.5,58.82h-24.2c.19,14.72,8.79,24.93,23.52,28.96h.69v-28.96Z"/>
      <path class="cls-1" d="M78.64,26.9c0,6.82,1.54,11,5.66,14.73,2.95,2.59,7.56,4.9,15.2,6.07V1.93h-.23c-12.71,3.79-20.62,12.89-20.62,24.97"/>
      <path class="cls-3" d="M132.93,59.35c0,6.26-7.47,11.32-16.68,11.32s-16.69-5.07-16.69-11.32,7.47-11.32,16.69-11.32,16.68,5.07,16.68,11.32"/>
      <path class="cls-2" d="M122.54,59.35c0,3.47-2.81,6.29-6.29,6.29s-6.29-2.81-6.29-6.29,2.82-6.29,6.29-6.29,6.29,2.82,6.29,6.29"/>
      <g>
        <path class="cls-3" d="M201.43,33.34c4.8-5.29,9.69-7.58,15.98-7.58,6.79,0,11.08,2.79,12.38,8.08,5.19-5.89,9.59-8.08,16.48-8.08,8.88,0,14.88,5.48,14.88,13.67,0,2.6-.4,5.69-1.2,9.69l-5.6,26.27h-18.47l5.5-25.56c.6-3,.7-3.8.7-5,0-2.9-2.1-4.69-5.19-4.69-4.2,0-6.3,2.6-7.79,9.69l-5.4,25.56h-18.47l5.5-25.97c.5-2.19.7-3.59.7-4.8,0-2.89-1.9-4.79-5-4.79-4.19,0-6.39,2.69-7.79,9.28l-5.59,26.27h-18.48l10.29-48.24h17.88l-1.3,6.19Z"/>
        <path class="cls-3" d="M282.39,75.39h-18.48l10.29-48.24h18.37l-10.18,48.24ZM293.97,20.96h-18.47l2.6-12.18h18.37l-2.49,12.18Z"/>
        <path class="cls-3" d="M319.22,33.34c4.4-5.19,9.59-7.58,15.98-7.58,8.79,0,14.78,5.19,14.78,12.88,0,2.19-.3,4.79-.9,7.59l-6.2,29.16h-18.47l5.79-27.27c.2-.69.3-1.89.3-3,0-3.19-1.9-4.98-5.5-4.98-4.59,0-7.29,2.89-8.59,8.98l-5.59,26.27h-18.48l10.29-48.24h17.88l-1.3,6.19Z"/>
        <path class="cls-3" d="M402.77,75.39h-17.98l1.2-5.49c-3,4.59-7.29,6.78-13.18,6.78-11.29,0-17.77-7.38-17.77-20.37,0-17.87,9.99-30.55,24.16-30.55,6.49,0,11.19,2.39,14.08,7.29l5.19-24.27h18.38l-14.08,66.61ZM373.61,55.22c0,5.19,2.3,7.9,6.79,7.9,5.6,0,9.69-6.59,9.69-15.68,0-4.69-2.49-7.4-6.79-7.4-5.79,0-9.69,6.09-9.69,15.18"/>
        <path class="cls-2" d="M446.18,41.24l.1-1c0-2.69-2.3-4.3-6.19-4.3s-6.19,1.5-6.19,4.09c0,2.4,1.6,3.3,7.39,4.2,9.58,1.6,11.59,2.29,14.48,4.59,2.6,2.19,4.09,5.69,4.09,9.69,0,11.28-9.28,18.17-24.57,18.17-7.39,0-12.78-1.19-16.47-3.59-4.39-2.9-6.79-7.19-6.79-12.08,0-.4,0-1,.1-1.71h16.28c-.1,4.7,2.3,6.7,7.59,6.7,4.29,0,7.09-1.89,7.09-4.79,0-2.6-1.5-3.5-8.19-4.69-9.18-1.71-11.08-2.3-13.57-4-3.1-2.1-4.8-5.7-4.8-9.88,0-10.49,8.99-16.78,23.97-16.78,6.39,0,11.99,1,15.48,2.89,3.99,2.11,6.59,6.09,6.59,10.49,0,.4-.1,1.1-.2,2h-16.18Z"/>
        <path class="cls-2" d="M519.37,47.23c0,8.39-3.3,16.88-8.59,22.17-4.79,4.99-11.49,7.38-20.08,7.38s-14.48-1.89-18.47-5.89c-3.99-4-5.99-9.28-5.99-15.68,0-10.69,4.59-19.87,12.48-25.06,4.49-2.91,9.98-4.39,16.48-4.39,15.08,0,24.17,8.08,24.17,21.47M484.41,56.02c0,5.09,2.39,7.88,6.7,7.88,1.89,0,3.69-.79,4.99-2.1,2.89-3,4.99-9.28,4.99-15.38,0-5-2.39-7.88-6.59-7.88-5.6,0-10.09,7.79-10.09,17.47"/>
        <path class="cls-2" d="M563.27,20.37c-2.1-.2-2.99-.2-3.99-.2-5.2,0-6.1.69-7.29,5.59l-.29,1.39h9.78l-2.39,11.09h-9.29l-7.88,37.15h-18.48l7.89-37.15h-7.59l2.29-11.09h7.69c2.49-9.88,3.39-12.08,6.59-14.98,3.5-3.09,7.99-4.28,16.88-4.28,2.8,0,4.9.1,8.69.5l-2.6,11.98Z"/>
        <path class="cls-2" d="M597.61,38.44h-9.78l-3.4,15.99c-.5,2.38-.8,4.09-.8,4.78,0,2.4,1.2,3.29,4.6,3.29,1.4,0,2.79,0,5.59-.2l-2.8,13.09c-3.29.6-6.39.79-10.79.79-5.59,0-8.59-.6-11.29-2.29-2.99-1.8-4.79-5.09-4.79-8.9q0-1.99,1.6-9.48l3.59-17.08h-7.98l2.39-11.28h7.99l3.2-14.78h18.37l-3.1,14.78h9.78l-2.39,11.28Z"/>
      </g>
    </g>
  </g>
</svg>