<?xml version="1.0" encoding="UTF-8"?>
<svg id="Layer_1" xmlns="http://www.w3.org/2000/svg" viewBox="0 0 720 720">
  <defs>
    <style>
      .cls-1 {
        fill: #001689;
      }

      .cls-2 {
        fill: #fff;
      }

      .cls-3 {
        fill: #ff4438;
      }
    </style>
  </defs>
  <path class="cls-1" d="M359.02,337.8h40.09v-18.42c-12.65-1.94-20.28-5.76-25.18-10.05-6.82-6.19-9.37-13.11-9.37-24.41,0-20.01,13.11-35.09,34.16-41.37h-60.81l-20.9,83.16-20.26-83.16h-62.47v142.23h40.94l-.64-98.31,25.8,98.31h32.62l25.8-98.73-.64,98.73h39.81c-24.41-6.68-38.64-23.6-38.96-47.98"/>
  <path class="cls-1" d="M468.83,308.38c-7.03-4.91-15.56-8.32-31.98-12.8q-30.28-8.1-30.28-13.86c0-5.54,5.34-8.74,14.29-8.74,11.09,0,17.91,5.12,17.91,13.64h40.95c-.22-29.21-21.32-46.26-57.57-46.26-8.56,0-16.42,1.12-23.42,3.19h.39v75.83c5.54.84,12.03,1.34,19.69,1.35,31.73.06,35.01,11.93,32.6,24.2-1.58,8.08-15.19,11.43-26.5,11.43-14.5,0-21.32-5.55-22.18-18.55h-3.61v47.98h-1.13c7.6,2.08,16.17,3.19,25.65,3.19,37.95,0,62.04-18.76,62.04-48.4,0-13.64-5.75-24.53-16.84-32.2"/>
  <path class="cls-2" d="M399.11,337.8h-40.09c.32,24.38,14.56,41.3,38.96,47.98h1.13v-47.98Z"/>
  <path class="cls-2" d="M364.56,284.92c0,11.29,2.55,18.22,9.38,24.41,4.89,4.3,12.53,8.11,25.18,10.05v-75.83h-.39c-21.06,6.27-34.16,21.36-34.16,41.37"/>
  <path class="cls-3" d="M454.5,338.68c0,10.37-12.37,18.76-27.63,18.76s-27.64-8.39-27.64-18.76,12.37-18.76,27.64-18.76,27.63,8.39,27.63,18.76"/>
  <path class="cls-2" d="M437.28,338.68c0,5.76-4.66,10.41-10.41,10.41s-10.42-4.66-10.42-10.41,4.67-10.43,10.42-10.43,10.41,4.67,10.41,10.43"/>
  <path class="cls-3" d="M176.36,436.71c4.74-5.23,9.58-7.49,15.79-7.49,6.71,0,10.95,2.76,12.24,7.98,5.13-5.81,9.48-7.98,16.28-7.98,8.78,0,14.7,5.42,14.7,13.51,0,2.56-.39,5.62-1.18,9.57l-5.53,25.96h-18.25l5.43-25.26c.59-2.96.69-3.76.69-4.94,0-2.87-2.07-4.64-5.13-4.64-4.15,0-6.22,2.56-7.7,9.57l-5.33,25.26h-18.25l5.43-25.66c.49-2.17.69-3.55.69-4.74,0-2.85-1.88-4.73-4.94-4.73-4.14,0-6.31,2.66-7.69,9.17l-5.52,25.96h-18.26l10.16-47.67h17.66l-1.28,6.12Z"/>
  <path class="cls-3" d="M256.35,478.26h-18.26l10.16-47.67h18.15l-10.06,47.67ZM267.79,424.48h-18.25l2.56-12.04h18.15l-2.47,12.04Z"/>
  <path class="cls-3" d="M292.74,436.71c4.35-5.13,9.48-7.49,15.79-7.49,8.69,0,14.6,5.13,14.6,12.73,0,2.17-.3,4.73-.89,7.5l-6.12,28.81h-18.25l5.72-26.95c.2-.69.29-1.87.29-2.96,0-3.15-1.88-4.92-5.43-4.92-4.54,0-7.2,2.85-8.48,8.87l-5.52,25.96h-18.26l10.16-47.67h17.66l-1.28,6.12Z"/>
  <path class="cls-3" d="M375.3,478.26h-17.76l1.19-5.42c-2.96,4.53-7.21,6.7-13.02,6.7-11.15,0-17.56-7.3-17.56-20.13,0-17.66,9.87-30.18,23.88-30.18,6.42,0,11.05,2.36,13.91,7.2l5.13-23.98h18.16l-13.91,65.82ZM346.49,458.32c0,5.13,2.27,7.8,6.71,7.8,5.53,0,9.57-6.51,9.57-15.5,0-4.64-2.47-7.31-6.71-7.31-5.72,0-9.57,6.02-9.57,15"/>
  <path class="cls-1" d="M418.2,444.51l.1-.99c0-2.66-2.27-4.25-6.12-4.25s-6.12,1.48-6.12,4.05c0,2.37,1.58,3.26,7.3,4.15,9.47,1.58,11.45,2.26,14.31,4.54,2.56,2.17,4.04,5.62,4.04,9.57,0,11.15-9.17,17.95-24.28,17.95-7.3,0-12.62-1.18-16.28-3.55-4.34-2.87-6.71-7.1-6.71-11.93,0-.4,0-.99.1-1.69h16.08c-.1,4.64,2.27,6.62,7.5,6.62,4.24,0,7-1.87,7-4.73,0-2.56-1.48-3.46-8.09-4.64-9.07-1.69-10.95-2.28-13.41-3.95-3.06-2.07-4.74-5.63-4.74-9.76,0-10.37,8.88-16.58,23.68-16.58,6.31,0,11.84.99,15.29,2.85,3.95,2.08,6.51,6.02,6.51,10.37,0,.4-.1,1.08-.2,1.97h-15.99Z"/>
  <path class="cls-1" d="M490.51,450.44c0,8.29-3.26,16.68-8.49,21.91-4.73,4.93-11.35,7.29-19.84,7.29s-14.31-1.87-18.25-5.82c-3.94-3.95-5.92-9.17-5.92-15.5,0-10.56,4.54-19.63,12.34-24.76,4.44-2.87,9.86-4.34,16.28-4.34,14.9,0,23.88,7.98,23.88,21.21M455.97,459.12c0,5.03,2.37,7.79,6.62,7.79,1.87,0,3.65-.78,4.93-2.07,2.86-2.96,4.93-9.17,4.93-15.19,0-4.94-2.37-7.79-6.51-7.79-5.53,0-9.97,7.69-9.97,17.26"/>
  <path class="cls-1" d="M533.9,423.89c-2.07-.19-2.96-.19-3.95-.19-5.14,0-6.02.69-7.21,5.53l-.29,1.37h9.67l-2.37,10.96h-9.18l-7.79,36.71h-18.26l7.8-36.71h-7.5l2.27-10.96h7.6c2.47-9.76,3.35-11.93,6.51-14.8,3.46-3.05,7.9-4.23,16.68-4.23,2.77,0,4.84.1,8.59.49l-2.56,11.84Z"/>
  <path class="cls-1" d="M567.82,441.75h-9.67l-3.36,15.8c-.49,2.35-.79,4.04-.79,4.73,0,2.37,1.19,3.25,4.54,3.25,1.38,0,2.76,0,5.52-.19l-2.76,12.93c-3.25.59-6.32.78-10.66.78-5.52,0-8.49-.59-11.15-2.26-2.96-1.78-4.73-5.03-4.73-8.79q0-1.97,1.58-9.37l3.55-16.88h-7.89l2.37-11.15h7.89l3.16-14.6h18.16l-3.06,14.6h9.67l-2.37,11.15Z"/>
</svg>